<svg width="30" height="43" viewBox="0 0 30 43" fill="none" xmlns="http://www.w3.org/2000/svg">
<path d="M5.53155 15.7328C4.67878 14.1675 3.79636 12.5491 3.78366 11.3622C3.77618 10.6521 4.62572 8.4639 5.23138 7.1369C5.26588 7.0612 5.28772 6.98034 5.296 6.89756L5.98579 0H6.12981L6.81961 6.89794C6.8384 7.0849 6.92596 7.25821 7.0653 7.38427C7.20464 7.51032 7.38584 7.58013 7.57374 7.58015C9.02723 7.58015 10.3919 8.40857 11.7116 9.20989C12.8997 9.93095 14.022 10.6122 15.1539 10.6122C16.2858 10.6122 17.408 9.93095 18.5962 9.20989C19.9159 8.40857 21.2805 7.58015 22.734 7.58015C22.922 7.58016 23.1032 7.51036 23.2425 7.3843C23.3819 7.25824 23.4695 7.08491 23.4883 6.89794L24.1781 0H24.3221L25.0119 6.89794C25.0202 6.98069 25.042 7.06152 25.0765 7.13719C25.6822 8.46485 26.5317 10.6534 26.5241 11.3626C26.5115 12.5493 25.6294 14.1679 24.7763 15.7332C24.1953 16.7991 23.6033 17.886 23.2072 18.9508H7.10064C6.70458 17.8857 6.11257 16.7988 5.53155 15.7328Z" fill="#DA5D1A"/>
<path d="M6.05795 29.5631C5.90716 29.5631 5.7598 29.6081 5.63473 29.6924C5.50966 29.7766 5.41256 29.8962 5.35584 30.036C3.88965 33.6469 3.11022 37.8202 3.03366 42.4494H-9.53674e-06C0.163343 32.157 3.64538 27.5734 5.74584 24.8086C6.1059 24.3348 6.4309 23.9055 6.70473 23.499H23.5286C23.771 23.8959 24.057 24.3153 24.3732 24.7782C26.266 27.547 29.4039 32.1376 29.551 42.4494H26.546C26.4682 37.8342 25.6787 33.6602 24.1938 30.0339C24.158 29.939 24.1037 29.8522 24.0338 29.7787C23.964 29.7052 23.8801 29.6465 23.7872 29.606C23.6943 29.5655 23.5941 29.544 23.4928 29.5429C23.3914 29.5418 23.2908 29.561 23.197 29.5994C23.1032 29.6378 23.018 29.6947 22.9466 29.7666C22.8751 29.8385 22.8188 29.9241 22.781 30.0181C22.7432 30.1122 22.7246 30.2129 22.7264 30.3142C22.7282 30.4156 22.7503 30.5156 22.7914 30.6083C22.7923 30.6103 22.793 30.6125 22.794 30.6147L22.7946 30.6164C24.203 34.0591 24.9537 38.037 25.0308 42.4492H4.55017C4.62597 38.018 5.36807 34.0366 6.76101 30.6062C6.80787 30.491 6.82568 30.3661 6.81287 30.2425C6.80006 30.1189 6.75702 30.0003 6.68754 29.8972C6.61807 29.7941 6.5243 29.7097 6.41451 29.6515C6.30471 29.5932 6.18226 29.5628 6.05795 29.5631ZM21.9763 28.047C22.1262 28.047 22.2727 28.0026 22.3974 27.9193C22.5221 27.836 22.6192 27.7176 22.6766 27.5791C22.734 27.4406 22.749 27.2882 22.7197 27.1411C22.6905 26.9941 22.6183 26.859 22.5123 26.753C22.4063 26.647 22.2712 26.5748 22.1242 26.5456C21.9771 26.5163 21.8247 26.5313 21.6862 26.5887C21.5477 26.6461 21.4293 26.7432 21.346 26.8679C21.2627 26.9925 21.2183 27.1391 21.2183 27.289C21.2183 27.49 21.2981 27.6828 21.4403 27.825C21.5824 27.9672 21.7752 28.047 21.9763 28.047ZM7.57398 28.047C7.72391 28.047 7.87046 28.0026 7.99511 27.9193C8.11977 27.836 8.21692 27.7176 8.2743 27.5791C8.33167 27.4406 8.34668 27.2882 8.31743 27.1411C8.28819 26.9941 8.21599 26.859 8.10998 26.753C8.00397 26.647 7.86891 26.5748 7.72187 26.5456C7.57483 26.5163 7.42241 26.5313 7.28391 26.5887C7.1454 26.6461 7.02701 26.7432 6.94372 26.8679C6.86042 26.9925 6.81597 27.1391 6.81597 27.289C6.81597 27.49 6.89583 27.6828 7.03798 27.825C7.18014 27.9672 7.37295 28.047 7.57398 28.047Z" fill="#DA5D1A"/>
<path d="M7.46557 21.9823C7.53613 21.7358 7.57254 21.4808 7.57378 21.2243C7.5727 20.9705 7.55224 20.7171 7.51257 20.4663H22.7953C22.7556 20.7171 22.7352 20.9705 22.7341 21.2243C22.7353 21.4802 22.7688 21.7349 22.834 21.9823H7.46557Z" fill="#DA5D1A"/>
</svg>
