<svg width="35" height="29" viewBox="0 0 35 29" fill="none" xmlns="http://www.w3.org/2000/svg">
<path d="M18.1089 8.30818C18.0953 4.96052 16.822 0.900143 11.2939 0.71669C5.20435 0.205526 1.88257 4.99006 1.26684 7.86923C0.147848 12.6132 2.86099 16.0322 3.64236 16.8004C6.67726 19.5288 9.40082 21.6612 10.4369 22.5469C10.7691 22.8258 13.8608 25.3218 14.3971 25.7826C14.3482 25.7754 15.1159 26.4243 15.7348 26.9557C16.7672 27.9216 17.6041 27.7222 18.0162 26.9043C18.0289 26.8774 18.0395 26.8496 18.0479 26.8211C18.2334 26.2283 18.0743 19.7988 18.1336 19.5467" stroke="white" stroke-miterlimit="10"/>
<path d="M18.0976 8.16565V8.46713C18.2975 8.46713 18.4925 8.53858 18.6327 8.6631C18.7872 8.80042 18.8743 8.9985 18.8843 9.23667C18.848 9.80948 18.4464 10.0127 18.1129 10.0127C17.9131 10.0127 17.718 9.94123 17.5779 9.81672C17.4233 9.6794 17.3363 9.48132 17.3264 9.24315C17.3624 8.67033 17.7633 8.46713 18.0976 8.46713V8.16565ZM18.0976 8.16565C17.5791 8.16565 17.0626 8.51477 17.0239 9.23983C17.0461 9.94636 17.5806 10.3142 18.1129 10.3142C18.6315 10.3142 19.1481 9.96505 19.1866 9.23983C19.1645 8.53346 18.63 8.16565 18.0976 8.16565Z" fill="white"/>
<path d="M18.6151 9.23981C18.5714 9.94649 17.6095 9.88212 17.5942 9.23981C17.6379 8.53328 18.6 8.59765 18.6151 9.23981Z" fill="#FF454E"/>
<path d="M18.5859 3.47278C19.0288 3.00922 19.5215 2.59575 20.0551 2.23987C20.5962 1.87807 21.173 1.57243 21.7763 1.32773C23.6392 0.574487 25.6866 0.401086 27.6499 0.830284C27.9797 0.903062 28.3056 0.992874 28.6262 1.09936C28.7068 1.12529 28.7864 1.15408 28.8661 1.18257C28.9458 1.21106 29.0248 1.24181 29.104 1.27166C29.1438 1.28673 29.1829 1.30316 29.2221 1.31929L29.3396 1.36798C29.4177 1.40129 29.4951 1.43611 29.5729 1.47033C30.194 1.75354 30.782 2.10417 31.3263 2.51588C31.5988 2.72257 31.8592 2.94468 32.1062 3.1811C32.3534 3.41816 32.5873 3.66877 32.8066 3.93179C33.0253 4.19518 33.2292 4.4704 33.4175 4.7562C33.9761 5.61198 34.3941 6.55139 34.6556 7.53889C35.0003 8.84093 35.081 10.1986 34.8931 11.5322C34.8479 11.8622 34.7837 12.1891 34.7061 12.512C34.6285 12.8349 34.5339 13.1525 34.4242 13.4644C34.2073 14.0858 33.9282 14.6838 33.591 15.2493C33.2574 15.8078 32.8674 16.3308 32.4273 16.8102C31.9932 17.2821 31.5088 17.7053 30.9827 18.0723C31.3912 17.5854 31.7654 17.0822 32.0915 16.555C32.4146 16.0327 32.6942 15.4847 32.9276 14.9168C33.384 13.8027 33.6485 12.6197 33.71 11.4176C33.7681 10.2319 33.6241 9.0466 33.2771 7.93307C32.9301 6.81955 32.3804 5.77943 31.6448 4.89443C31.2768 4.45197 30.8639 4.0487 30.4128 3.69106C29.9583 3.33243 29.4693 3.01967 28.9529 2.75736C27.9156 2.23203 26.7679 1.90311 25.5858 1.78146C24.9912 1.72012 24.3924 1.71003 23.796 1.75132C23.1919 1.79338 22.5925 1.88616 22.004 2.02868C21.4063 2.17354 20.8216 2.3674 20.2559 2.60828C19.6787 2.85517 19.1206 3.14411 18.5859 3.47278Z" fill="#FF454E"/>
<path d="M27.4113 10.7901H22.1966V5.66719C22.1966 5.54725 22.1489 5.43223 22.0639 5.34742C21.979 5.26261 21.8637 5.21497 21.7436 5.21497H18.1289C18.1691 5.35169 18.2068 5.49067 18.2412 5.63237C18.2799 5.79175 18.3151 5.9541 18.3469 6.11942H21.2912V11.2424C21.2912 11.3623 21.339 11.4773 21.4239 11.5621C21.5089 11.6469 21.6241 11.6946 21.7442 11.6946H26.9584V17.8278H21.7436C21.6235 17.8278 21.5083 17.8755 21.4233 17.9603C21.3384 18.0451 21.2906 18.1601 21.2906 18.28V23.403H18.586C18.5878 23.7091 18.5888 24.0138 18.589 24.3074H21.7436C21.8637 24.3074 21.979 24.2598 22.0639 24.175C22.1489 24.0902 22.1966 23.9752 22.1966 23.8552V18.7323H27.4113C27.5315 18.7323 27.6467 18.6846 27.7316 18.5998C27.8166 18.515 27.8643 18.4 27.8643 18.28V11.2424C27.8643 11.1224 27.8166 11.0074 27.7316 10.9226C27.6467 10.8378 27.5315 10.7901 27.4113 10.7901Z" fill="white"/>
<path d="M15.0419 18.28C15.0419 18.1601 14.9942 18.0451 14.9092 17.9603C14.8243 17.8755 14.7091 17.8278 14.5889 17.8278H9.3742V11.6946H14.5889C14.7091 11.6946 14.8243 11.6469 14.9092 11.5621C14.9942 11.4773 15.0419 11.3623 15.0419 11.2424V6.11942H17.4452C17.3799 5.81346 17.297 5.51148 17.1971 5.21497H14.5889C14.4688 5.21497 14.3536 5.26261 14.2686 5.34742C14.1837 5.43223 14.136 5.54725 14.136 5.66719V10.7901H8.92123C8.8011 10.7901 8.68588 10.8378 8.60093 10.9226C8.51599 11.0074 8.46826 11.1224 8.46826 11.2424V18.28C8.46826 18.4 8.51599 18.515 8.60093 18.5998C8.68588 18.6846 8.8011 18.7323 8.92123 18.7323H14.136V23.8552C14.136 23.9752 14.1837 24.0902 14.2686 24.175C14.3536 24.2598 14.4688 24.3074 14.5889 24.3074H17.7129C17.7129 24.0142 17.7117 23.7094 17.7099 23.403H15.0419V18.28Z" fill="white"/>
<path d="M15.4331 16.3258C15.3002 15.9022 15.1581 15.5132 15.0326 15.1699C14.7901 14.5054 14.5984 13.9807 14.5892 13.5507C14.5794 13.0671 14.808 12.74 15.3088 12.5211L15.3274 12.5129H15.3477C16.064 12.4891 16.0896 12.4906 16.1657 12.4955C16.2261 12.4992 16.3266 12.5054 16.979 12.4982L16.9813 12.7092C16.3212 12.7166 16.2197 12.7103 16.1525 12.706C16.0853 12.7018 16.0619 12.7003 15.3752 12.7232C14.9647 12.9076 14.7926 13.155 14.8004 13.547C14.8084 13.9421 14.9947 14.4524 15.2307 15.0982C15.3568 15.4437 15.4998 15.835 15.6342 16.2634L15.4331 16.3258Z" fill="white"/>
<path d="M20.8317 16.3258L20.6299 16.2626C20.7643 15.8344 20.9073 15.4429 21.0334 15.0976C21.2692 14.4518 21.4562 13.9415 21.4636 13.5464C21.4716 13.1545 21.2994 12.907 20.8887 12.7226C20.2026 12.6997 20.1776 12.7014 20.1116 12.7054C20.0456 12.7095 19.9429 12.7158 19.2828 12.7086L19.2851 12.4976C19.9375 12.5048 20.0382 12.4985 20.0985 12.4948C20.1739 12.49 20.2001 12.4885 20.9164 12.5123H20.9367L20.9553 12.5205C21.456 12.7392 21.6848 13.0665 21.6749 13.55C21.6662 13.9801 21.4746 14.5048 21.2319 15.1692C21.1066 15.5118 20.9645 15.9015 20.8317 16.3258Z" fill="white"/>
<path d="M18.1096 19.823H18.1035C17.6238 19.8205 17.1632 19.5198 16.6955 18.9034C16.2685 18.3412 15.8316 17.5112 15.3594 16.3662C15.35 16.3433 15.3452 16.3188 15.3452 16.294C15.3453 16.2693 15.3502 16.2448 15.3597 16.2219C15.3693 16.1991 15.3832 16.1783 15.4008 16.1609C15.4183 16.1434 15.4392 16.1296 15.4621 16.1201C15.485 16.1107 15.5096 16.1059 15.5344 16.106C15.5592 16.106 15.5837 16.1109 15.6066 16.1204C15.6295 16.13 15.6502 16.1439 15.6677 16.1614C15.6852 16.179 15.6991 16.1998 15.7085 16.2226C16.6012 18.3879 17.3853 19.4422 18.1055 19.446H18.1091C18.4564 19.446 18.8308 19.1927 19.2215 18.6922C19.642 18.1546 20.0786 17.3458 20.5568 16.2201C20.5659 16.1965 20.5796 16.1749 20.5973 16.1567C20.6149 16.1386 20.6359 16.1241 20.6593 16.1142C20.6826 16.1043 20.7077 16.0992 20.733 16.0992C20.7583 16.0992 20.7834 16.1043 20.8067 16.1142C20.83 16.1241 20.8511 16.1386 20.8687 16.1567C20.8863 16.1749 20.9001 16.1965 20.9092 16.2201C20.9183 16.2437 20.9225 16.2689 20.9216 16.2942C20.9207 16.3194 20.9148 16.3443 20.9041 16.3672C20.4129 17.5237 19.9598 18.3602 19.5188 18.9241C19.0466 19.5287 18.5855 19.823 18.1096 19.823Z" fill="#FF454E"/>
<path d="M17.068 12.993C16.7373 12.7832 16.4725 12.6075 16.8361 12.3701C17.2038 12.0561 17.4816 12.1431 17.4736 12.3745C17.4857 12.8525 17.5202 13.1668 17.068 12.993Z" fill="#FF454E"/>
<path d="M19.1532 12.993C19.4838 12.7832 19.7487 12.6075 19.3849 12.3701C19.0174 12.0561 18.7396 12.1431 18.7476 12.3745C18.7355 12.8525 18.7009 13.1668 19.1532 12.993Z" fill="#FF454E"/>
</svg>
