<svg width="20" height="20" viewBox="0 0 20 20" fill="none" xmlns="http://www.w3.org/2000/svg">
<path fill-rule="evenodd" clip-rule="evenodd" d="M8.03568 0.413868C6.81973 0.97993 5.78441 2.40554 5.78441 3.51333V3.95555H3.80138H1.81836V11.9778V20H9.75045H17.6825V11.9778V3.95555H15.7233H13.7639L13.6633 3.20452C13.5157 2.10412 12.7174 1.06971 11.5647 0.485256C10.3354 -0.138134 9.2675 -0.159767 8.03568 0.413868ZM11.2067 1.48109C11.9536 1.98424 12.6349 2.96259 12.6349 3.53154V3.95555H9.75045H6.86606V3.53154C6.86606 2.96259 7.54731 1.98424 8.29419 1.48109C9.11985 0.924586 10.3811 0.924586 11.2067 1.48109ZM5.78441 6.02871C5.78441 7.01012 5.78981 7.02022 6.32523 7.02022C6.86065 7.02022 6.86606 7.01012 6.86606 6.02871V5.03719H9.75045H12.6349V6.02871C12.6349 7.01012 12.6403 7.02022 13.1757 7.02022C13.7111 7.02022 13.7165 7.01012 13.7165 6.02871V5.03719H15.1587H16.6009V11.9778V18.9184H9.75045H2.90001V11.9778V5.03719H4.34221H5.78441V6.02871Z" fill="white"/>
</svg>
