<svg width="26" height="24" viewBox="0 0 26 24" fill="none" xmlns="http://www.w3.org/2000/svg">
<path d="M16.9474 18.3159C16.9474 18.5252 16.8642 18.726 16.7161 18.8741C16.5681 19.0222 16.3673 19.1053 16.1579 19.1053H5.10525C4.93157 19.1053 4.76578 19.2632 4.62367 19.3659L1.94736 21.4738V8.84218C1.94736 8.63279 2.03053 8.43199 2.17859 8.28393C2.32664 8.13588 2.52745 8.0527 2.73683 8.0527H5.7842V6.47375H2.73683C2.10869 6.47375 1.50627 6.72328 1.0621 7.16745C0.617938 7.61161 0.368408 8.21403 0.368408 8.84218V23.0527C0.369583 23.1993 0.411566 23.3427 0.489653 23.4668C0.567739 23.5909 0.678843 23.6908 0.810513 23.7553C0.937365 23.813 1.07723 23.8361 1.21589 23.8222C1.35455 23.8084 1.48707 23.7581 1.59999 23.6764L5.66578 20.6843H16.2763C16.5755 20.6931 16.8734 20.6404 17.1514 20.5295C17.4294 20.4186 17.6817 20.2517 17.8927 20.0393C18.1036 19.8269 18.2687 19.5734 18.3777 19.2946C18.4866 19.0158 18.5372 18.7176 18.5263 18.4185V17.5264H16.9474V18.3159Z" fill="white"/>
<path d="M23.2631 0.947388H9.84205C9.21391 0.947388 8.61149 1.19692 8.16733 1.64108C7.72316 2.08525 7.47363 2.68766 7.47363 3.31581V12.7895C7.47363 13.4176 7.72316 14.0201 8.16733 14.4642C8.61149 14.9084 9.21391 15.1579 9.84205 15.1579H20.5394L24.3131 18.0869C24.4253 18.1698 24.5574 18.2215 24.6961 18.2368C24.8348 18.252 24.9751 18.2303 25.1026 18.1737C25.2369 18.1097 25.3505 18.0091 25.4301 17.8834C25.5097 17.7576 25.5522 17.612 25.5526 17.4632V3.31581C25.5529 2.70111 25.3143 2.11035 24.887 1.66839C24.4598 1.22642 23.8775 0.967878 23.2631 0.947388ZM24.0526 15.9L21.2894 13.7448C21.1516 13.6378 20.9823 13.5795 20.8078 13.579H9.84205C9.63267 13.579 9.43187 13.4958 9.28381 13.3477C9.13576 13.1997 9.05258 12.9989 9.05258 12.7895V3.31581C9.05258 3.10643 9.13576 2.90562 9.28381 2.75757C9.43187 2.60951 9.63267 2.52634 9.84205 2.52634H23.2631C23.4741 2.54549 23.6709 2.64114 23.8163 2.79527C23.9617 2.94941 24.0457 3.15139 24.0526 3.36318V15.9Z" fill="white"/>
</svg>
