<svg width="21" height="21" viewBox="0 0 21 21" fill="none" xmlns="http://www.w3.org/2000/svg">
<path d="M14.8999 0H6.10017C2.73652 0 0 2.73652 0 6.10017V14.8998C0 18.2635 2.73652 21 6.10017 21H14.8998C18.2635 21 21 18.2635 21 14.8999V6.10017C21 2.73652 18.2635 0 14.8999 0ZM19.3594 14.8998C19.3594 17.3588 17.3588 19.3594 14.8999 19.3594H6.10017C3.64116 19.3594 1.64062 17.3588 1.64062 14.8999V6.10017C1.64062 3.64116 3.64116 1.64062 6.10017 1.64062H14.8998C17.3588 1.64062 19.3594 3.64116 19.3594 6.10017V14.8998Z" fill="#88888F"/>
<path d="M10.5 4.83984C7.37896 4.83984 4.83984 7.37896 4.83984 10.5C4.83984 13.621 7.37896 16.1602 10.5 16.1602C13.621 16.1602 16.1602 13.621 16.1602 10.5C16.1602 7.37896 13.621 4.83984 10.5 4.83984ZM10.5 14.5195C8.28364 14.5195 6.48047 12.7164 6.48047 10.5C6.48047 8.28364 8.28364 6.48047 10.5 6.48047C12.7164 6.48047 14.5195 8.28364 14.5195 10.5C14.5195 12.7164 12.7164 14.5195 10.5 14.5195Z" fill="#88888F"/>
<path d="M16.2422 5.57812C16.6952 5.57812 17.0625 5.21086 17.0625 4.75781C17.0625 4.30477 16.6952 3.9375 16.2422 3.9375C15.7891 3.9375 15.4219 4.30477 15.4219 4.75781C15.4219 5.21086 15.7891 5.57812 16.2422 5.57812Z" fill="#88888F"/>
</svg>
