<svg width="20" height="19" viewBox="0 0 20 19" fill="none" xmlns="http://www.w3.org/2000/svg">
<path d="M14.8889 18.9258C14.7079 18.9253 14.5275 18.9055 14.3507 18.8666C10.9856 18.1705 7.88543 16.5383 5.40701 14.158C2.98147 11.7724 1.29923 8.73499 0.563827 5.41332C0.477113 4.99934 0.498396 4.57001 0.625628 4.16664C0.75286 3.76327 0.981759 3.39943 1.2903 3.11012L3.44283 1.03831C3.55277 0.93434 3.68341 0.854719 3.8262 0.804648C3.969 0.754576 4.12075 0.735179 4.27155 0.747723C4.42791 0.764035 4.5788 0.814405 4.71361 0.895289C4.84842 0.976173 4.96387 1.08561 5.05184 1.2159L7.7425 5.19269C7.8434 5.34699 7.8921 5.52961 7.88145 5.71367C7.87079 5.89773 7.80134 6.07351 7.6833 6.21514L6.33259 7.82953C6.87054 9.02012 7.63237 10.0962 8.5766 10.9991C9.51472 11.9348 10.6236 12.682 11.8431 13.2001L13.5166 11.8709C13.6572 11.7598 13.8283 11.6941 14.007 11.6826C14.1858 11.6711 14.3639 11.7142 14.5176 11.8063L18.5805 14.4324C18.7199 14.5157 18.8387 14.6294 18.9279 14.765C19.0171 14.9007 19.0745 15.0548 19.0957 15.2158C19.117 15.3768 19.1015 15.5405 19.0505 15.6947C18.9994 15.8488 18.9142 15.9895 18.8011 16.106L16.7024 18.1832C16.464 18.4204 16.181 18.6081 15.8698 18.7356C15.5586 18.863 15.2252 18.9277 14.8889 18.9258ZM4.18545 1.81322L2.03292 3.88503C1.85935 4.04676 1.73086 4.25089 1.6601 4.47734C1.58933 4.70379 1.57873 4.94476 1.62933 5.17654C2.31314 8.29347 3.88502 11.1457 6.15501 13.3884C8.48738 15.6279 11.4048 17.1631 14.5714 17.8172C14.8111 17.8674 15.0594 17.8572 15.2942 17.7877C15.529 17.7182 15.7429 17.5915 15.9167 17.419L18.0154 15.3418L14.0924 12.8072L12.2951 14.2387C12.2263 14.2931 12.1452 14.3299 12.0589 14.3459C11.9726 14.3618 11.8837 14.3564 11.8 14.3302C10.3076 13.7803 8.95515 12.9074 7.83936 11.774C6.68526 10.6963 5.78942 9.37182 5.21866 7.89949C5.19452 7.81035 5.19371 7.71651 5.21633 7.62697C5.23895 7.53744 5.28423 7.45523 5.34781 7.38826L6.80077 5.6501L4.18545 1.81322Z" fill="white"/>
</svg>
