<svg width="14" height="18" viewBox="0 0 14 18" fill="none" xmlns="http://www.w3.org/2000/svg">
<path d="M7 4C6.38193 4 5.77775 4.18328 5.26384 4.52666C4.74994 4.87004 4.3494 5.3581 4.11288 5.92911C3.87635 6.50013 3.81447 7.12847 3.93505 7.73466C4.05562 8.34085 4.35325 8.89767 4.79029 9.33471C5.22733 9.77175 5.78415 10.0694 6.39034 10.19C6.99653 10.3105 7.62487 10.2486 8.19589 10.0121C8.7669 9.7756 9.25496 9.37506 9.59834 8.86116C9.94172 8.34725 10.125 7.74307 10.125 7.125C10.124 6.29649 9.7945 5.50219 9.20866 4.91634C8.62281 4.3305 7.82851 4.00095 7 4ZM7 9C6.62916 9 6.26665 8.89003 5.95831 8.68401C5.64996 8.47798 5.40964 8.18514 5.26773 7.84253C5.12581 7.49992 5.08868 7.12292 5.16103 6.75921C5.23337 6.39549 5.41195 6.0614 5.67417 5.79917C5.9364 5.53695 6.27049 5.35837 6.63421 5.28603C6.99792 5.21368 7.37492 5.25081 7.71753 5.39273C8.06014 5.53464 8.35298 5.77496 8.55901 6.08331C8.76503 6.39165 8.875 6.75416 8.875 7.125C8.87444 7.62211 8.67672 8.0987 8.32521 8.45021C7.9737 8.80172 7.49711 8.99944 7 9ZM7 0.25C5.17727 0.252068 3.42979 0.97706 2.14092 2.26592C0.85206 3.55479 0.127068 5.30227 0.125 7.125C0.125 9.57781 1.25859 12.178 3.40336 14.6445C4.36851 15.759 5.45458 16.7626 6.64156 17.637C6.74662 17.7106 6.87176 17.75 7 17.75C7.12824 17.75 7.25338 17.7106 7.35844 17.637C8.54542 16.7626 9.63149 15.759 10.5966 14.6445C12.7413 12.178 13.875 9.57789 13.875 7.125C13.8729 5.30227 13.1479 3.55479 11.8591 2.26592C10.5702 0.97706 8.82273 0.252068 7 0.25ZM7 16.3422C5.70836 15.3291 1.375 11.5962 1.375 7.125C1.375 5.63316 1.96763 4.20242 3.02252 3.14752C4.07742 2.09263 5.50816 1.5 7 1.5C8.49184 1.5 9.92258 2.09263 10.9775 3.14752C12.0324 4.20242 12.625 5.63316 12.625 7.125C12.625 11.5962 8.29141 15.3293 7 16.3422Z" fill="white"/>
</svg>
