<svg width="20" height="20" viewBox="0 0 20 20" fill="none" xmlns="http://www.w3.org/2000/svg">
<path d="M8.94611 1.81812C4.51459 1.81812 0.90918 5.41367 0.90918 9.83312C0.90918 14.2526 4.51463 17.8481 8.94611 17.8481C13.3776 17.8481 16.9831 14.2526 16.9831 9.83312C16.9831 5.41367 13.3776 1.81812 8.94611 1.81812ZM8.94611 16.5306C5.24099 16.5306 2.22671 13.5259 2.22671 9.83308C2.22671 6.14003 5.24099 3.13561 8.94611 3.13561C12.6512 3.13561 15.6655 6.14003 15.6655 9.83308C15.6655 13.5259 12.6513 16.5306 8.94611 16.5306Z" fill="white"/>
<path d="M18.9415 18.8741L14.6156 14.5702C14.3575 14.3137 13.9405 14.3148 13.6838 14.5726C13.4274 14.8306 13.4285 15.2476 13.6863 15.5043L18.0122 19.8083C18.1408 19.9361 18.3086 20 18.4768 20C18.6461 20 18.8152 19.9352 18.9439 19.8058C19.2004 19.5478 19.1993 19.1308 18.9415 18.8741Z" fill="white"/>
</svg>
