<svg width="28" height="27" viewBox="0 0 28 27" fill="none" xmlns="http://www.w3.org/2000/svg">
<g clip-path="url(#clip0_904_52)">
<rect x="0.799316" width="27" height="27" rx="6" fill="#0087D0"/>
<ellipse cx="14.5991" cy="13.2" rx="12" ry="12" fill="white"/>
<path d="M14.2993 0C6.84383 0 0.799316 6.04452 0.799316 13.5C0.799316 20.9555 6.84383 27 14.2993 27C21.7548 27 27.7993 20.9555 27.7993 13.5C27.7993 6.04452 21.7548 0 14.2993 0ZM21.3463 6.6346L18.4125 20.2247C18.399 20.2869 18.3709 20.345 18.3303 20.394C18.2897 20.443 18.238 20.4815 18.1793 20.5063C18.1208 20.5311 18.0571 20.5414 17.9936 20.5363C17.9302 20.5313 17.8689 20.511 17.815 20.4773L13.3034 17.526L10.9304 19.7043C10.8815 19.7457 10.8233 19.7745 10.7609 19.7886C10.6984 19.8026 10.6335 19.8013 10.5716 19.7848C10.5097 19.7684 10.4528 19.7372 10.4055 19.694C10.3583 19.6508 10.3222 19.5968 10.3003 19.5367L8.75517 14.7302L4.60545 13.0515C4.28754 12.9082 4.2919 12.4082 4.61807 12.2833L20.815 6.19302C21.1068 6.08153 21.4077 6.33194 21.3459 6.63416L21.3463 6.6346Z" fill="#0087D0"/>
<path d="M10.8007 18.2803L11.0646 15.7745L18.3838 8.61951L9.54785 14.4223L10.8007 18.2803Z" fill="#0087D0"/>
</g>
<defs>
<clipPath id="clip0_904_52">
<rect width="27" height="27" fill="white" transform="translate(0.799316)"/>
</clipPath>
</defs>
</svg>
