<svg width="20" height="20" viewBox="0 0 20 20" fill="none" xmlns="http://www.w3.org/2000/svg">
<path d="M9.66121 9.19614C10.9246 9.19614 12.0184 8.74302 12.9125 7.84901C13.8062 6.95515 14.2594 5.86145 14.2594 4.59792C14.2594 3.33484 13.8063 2.24099 12.9123 1.34684C12.0183 0.453122 10.9245 0 9.66121 0C8.39768 0 7.30399 0.453122 6.41012 1.34698C5.51626 2.24085 5.06299 3.33469 5.06299 4.59792C5.06299 5.86145 5.51626 6.95529 6.41012 7.84916C7.30428 8.74287 8.39812 9.19614 9.66121 9.19614ZM7.2013 2.13802C7.88718 1.45214 8.69176 1.11875 9.66121 1.11875C10.6305 1.11875 11.4353 1.45214 12.1213 2.13802C12.8071 2.82404 13.1407 3.62876 13.1407 4.59792C13.1407 5.56738 12.8071 6.37196 12.1213 7.05798C11.4353 7.744 10.6305 8.07739 9.66121 8.07739C8.69205 8.07739 7.88747 7.74385 7.2013 7.05798C6.51528 6.3721 6.18174 5.56738 6.18174 4.59792C6.18174 3.62876 6.51528 2.82404 7.2013 2.13802Z" fill="white"/>
<path d="M17.7071 14.68C17.6813 14.308 17.6292 13.9022 17.5524 13.4737C17.4749 13.042 17.3752 12.6339 17.2557 12.2608C17.1322 11.8753 16.9646 11.4946 16.757 11.1297C16.5419 10.751 16.2891 10.4213 16.0053 10.1499C15.7086 9.86604 15.3454 9.63781 14.9253 9.47133C14.5067 9.30572 14.0428 9.22183 13.5466 9.22183C13.3517 9.22183 13.1632 9.30179 12.7992 9.53876C12.5752 9.68485 12.3132 9.85381 12.0207 10.0407C11.7706 10.2 11.4319 10.3493 11.0134 10.4845C10.6051 10.6166 10.1906 10.6836 9.78133 10.6836C9.37234 10.6836 8.95782 10.6166 8.54926 10.4845C8.13124 10.3495 7.79231 10.2002 7.54267 10.0408C7.25296 9.8557 6.99079 9.68674 6.76343 9.53862C6.39974 9.30164 6.21126 9.22168 6.01638 9.22168C5.52 9.22168 5.05624 9.30572 4.63779 9.47147C4.21802 9.63766 3.85462 9.8659 3.55763 10.1501C3.2739 10.4216 3.02105 10.7512 2.80607 11.1297C2.59881 11.4946 2.43102 11.8752 2.30751 12.261C2.18822 12.634 2.08844 13.042 2.01096 13.4737C1.93405 13.9016 1.88206 14.3075 1.85628 14.6804C1.83093 15.045 1.81812 15.4244 1.81812 15.8077C1.81812 16.8043 2.13491 17.6111 2.75961 18.206C3.37659 18.7932 4.19282 19.0909 5.18573 19.0909H14.3781C15.3707 19.0909 16.1869 18.7932 16.8041 18.206C17.4289 17.6115 17.7457 16.8044 17.7457 15.8076C17.7456 15.4229 17.7326 15.0435 17.7071 14.68ZM16.0327 17.3955C15.625 17.7835 15.0838 17.9721 14.378 17.9721H5.18573C4.47975 17.9721 3.93851 17.7835 3.53098 17.3956C3.13117 17.015 2.93687 16.4955 2.93687 15.8077C2.93687 15.45 2.94866 15.0968 2.97226 14.7577C2.99527 14.4251 3.04232 14.0596 3.11209 13.6713C3.18098 13.2878 3.26866 12.9279 3.37295 12.6021C3.47301 12.2897 3.60949 11.9803 3.77873 11.6823C3.94026 11.3983 4.12611 11.1546 4.33119 10.9583C4.52301 10.7746 4.7648 10.6243 5.04969 10.5116C5.31317 10.4073 5.60928 10.3502 5.93074 10.3416C5.96992 10.3624 6.03968 10.4022 6.15271 10.4759C6.38269 10.6258 6.64778 10.7968 6.94083 10.9839C7.27117 11.1945 7.69676 11.3847 8.20523 11.5489C8.72507 11.717 9.25524 11.8023 9.78148 11.8023C10.3077 11.8023 10.838 11.717 11.3576 11.549C11.8665 11.3846 12.2919 11.1945 12.6227 10.9836C12.9226 10.7919 13.1803 10.6259 13.4102 10.4759C13.5233 10.4023 13.593 10.3624 13.6322 10.3416C13.9538 10.3502 14.2499 10.4073 14.5136 10.5116C14.7983 10.6243 15.0401 10.7748 15.2319 10.9583C15.437 11.1545 15.6228 11.3981 15.7844 11.6825C15.9538 11.9803 16.0904 12.2898 16.1903 12.602C16.2947 12.9282 16.3826 13.288 16.4513 13.6712C16.5209 14.0602 16.5681 14.4258 16.5911 14.7579V14.7582C16.6149 15.0959 16.6268 15.449 16.627 15.8077C16.6268 16.4957 16.4325 17.015 16.0327 17.3955Z" fill="white"/>
</svg>
