<svg width="27" height="27" viewBox="0 0 27 27" fill="none" xmlns="http://www.w3.org/2000/svg">
<rect width="27" height="27" rx="6" fill="#935BBE"/>
<g clip-path="url(#clip0_801_57)">
<path d="M13.322 5.40371C11.8775 5.42115 8.77196 5.65853 7.03496 7.25209C5.7429 8.53234 5.29177 10.4252 5.2389 12.7657C5.19502 15.0978 5.14215 19.4775 9.36371 20.67V22.4863C9.36371 22.4863 9.33728 23.213 9.81765 23.3621C10.4094 23.5494 10.7463 22.9903 11.3088 22.3895L12.3579 21.2032C15.2463 21.4434 17.4587 20.8899 17.7135 20.8078C18.2996 20.6205 21.6009 20.1986 22.1403 15.8184C22.6938 11.2948 21.8709 8.44459 20.3853 7.15534H20.3763C19.928 6.74246 18.1263 5.42959 14.1011 5.41496C14.1011 5.41496 13.8024 5.39528 13.322 5.40371ZM13.3715 6.67553C13.7816 6.67271 14.0308 6.69015 14.0308 6.69015C17.4378 6.69915 19.064 7.72459 19.4477 8.06996C20.6987 9.14209 21.3433 11.7116 20.8713 15.4882C20.423 19.1501 17.7455 19.3818 17.25 19.5399C17.039 19.6074 15.0905 20.0878 12.6358 19.9297C12.6358 19.9297 10.8077 22.1358 10.2362 22.704C10.1456 22.8035 10.0398 22.8328 9.97234 22.8182C9.87559 22.7945 9.84634 22.6747 9.85197 22.5105L9.8694 19.496C6.28909 18.506 6.50003 14.7705 6.53828 12.8192C6.58215 10.8678 6.94834 9.27146 8.03846 8.19034C9.50603 6.8634 12.143 6.68453 13.3704 6.67553H13.3715ZM13.6415 8.62628C13.6121 8.62598 13.5828 8.63152 13.5555 8.64257C13.5282 8.65363 13.5033 8.66998 13.4824 8.69068C13.4614 8.71139 13.4447 8.73604 13.4333 8.76322C13.4219 8.79039 13.416 8.81956 13.416 8.84903C13.416 8.97503 13.5183 9.07459 13.6415 9.07459C14.1993 9.06398 14.7536 9.1639 15.2725 9.36857C15.7914 9.57324 16.2647 9.87861 16.665 10.2671C17.4823 11.0608 17.8805 12.1273 17.8957 13.5217C17.8957 13.6449 17.9953 13.7473 18.1213 13.7473V13.7383C18.1807 13.7384 18.2377 13.7151 18.28 13.6734C18.3222 13.6316 18.3463 13.5749 18.3468 13.5155C18.3742 12.8592 18.2677 12.2041 18.034 11.5902C17.8003 10.9762 17.4442 10.4162 16.9873 9.94421C16.0968 9.07403 14.9685 8.62571 13.6415 8.62571V8.62628ZM10.6766 9.14209C10.5174 9.11882 10.355 9.15079 10.2165 9.23265H10.2047C9.88305 9.42117 9.59334 9.65943 9.34628 9.93859C9.14096 10.176 9.02959 10.4162 9.00034 10.6473C8.9829 10.7852 8.99471 10.923 9.03578 11.0546L9.0504 11.0636C9.28159 11.7431 9.58365 12.3967 9.95265 13.0121C10.428 13.8766 11.0129 14.6762 11.693 15.3909L11.7133 15.4202L11.7453 15.4438L11.7656 15.4674L11.7892 15.4877C12.5065 16.1697 13.308 16.7574 14.1742 17.2365C15.1642 17.7753 15.765 18.0302 16.1255 18.1359V18.1415C16.2313 18.1736 16.3275 18.1882 16.4242 18.1882C16.7315 18.1657 17.0224 18.0409 17.2505 17.8338C17.5284 17.5867 17.764 17.2958 17.948 16.9727V16.967C18.1207 16.6419 18.0622 16.3342 17.813 16.1261C17.314 15.6899 16.7743 15.3024 16.2015 14.969C15.8178 14.7609 15.428 14.8869 15.27 15.0978L14.933 15.5225C14.7603 15.7335 14.4465 15.7042 14.4465 15.7042L14.4375 15.7098C12.0969 15.1119 11.4725 12.7421 11.4725 12.7421C11.4725 12.7421 11.4433 12.4198 11.6598 12.2555L12.0817 11.9158C12.2837 11.7515 12.4243 11.3623 12.2077 10.9781C11.8766 10.4044 11.49 9.86465 11.0535 9.36653C10.958 9.24909 10.8241 9.1692 10.6755 9.14096L10.6766 9.14209ZM14.0308 9.81034C13.7321 9.81034 13.7321 10.2615 14.0336 10.2615C14.405 10.2675 14.7716 10.3466 15.1124 10.4944C15.4532 10.6422 15.7615 10.8557 16.0198 11.1227C16.2554 11.3825 16.4364 11.6871 16.5522 12.0182C16.6679 12.3493 16.716 12.7003 16.6937 13.0503C16.6947 13.1096 16.7189 13.1661 16.761 13.2077C16.8032 13.2493 16.86 13.2728 16.9192 13.2731L16.9282 13.2849C16.9879 13.2845 17.045 13.2606 17.0872 13.2183C17.1294 13.1761 17.1533 13.119 17.1538 13.0593C17.174 12.1655 16.8962 11.4157 16.3511 10.815C15.8032 10.2142 15.0388 9.87728 14.0628 9.81034H14.0308ZM14.4003 11.0231C14.0927 11.0141 14.0808 11.4742 14.3857 11.4832C15.1271 11.5215 15.4871 11.8961 15.5343 12.6667C15.5354 12.7252 15.5593 12.781 15.6009 12.8221C15.6425 12.8632 15.6986 12.8864 15.7571 12.8867H15.7661C15.7962 12.8854 15.8257 12.8781 15.8529 12.8653C15.8802 12.8524 15.9046 12.8343 15.9247 12.812C15.9449 12.7896 15.9604 12.7635 15.9704 12.735C15.9803 12.7066 15.9845 12.6765 15.9827 12.6465C15.9298 11.6418 15.3819 11.076 14.4093 11.0237H14.4003V11.0231Z" fill="white"/>
</g>
<defs>
<clipPath id="clip0_801_57">
<rect width="18" height="18" fill="white" transform="translate(4.77344 5.401)"/>
</clipPath>
</defs>
</svg>
