<svg width="28" height="27" viewBox="0 0 28 27" fill="none" xmlns="http://www.w3.org/2000/svg">
<g clip-path="url(#clip0_801_46)">
<rect x="0.598877" width="27" height="27" rx="6" fill="#27D061"/>
<g clip-path="url(#clip1_801_46)">
<path fill-rule="evenodd" clip-rule="evenodd" d="M18.1893 14.8675C17.9807 14.7632 16.958 14.2606 16.7676 14.1906C16.5772 14.1213 16.4386 14.087 16.2993 14.2956C16.1607 14.5028 15.7624 14.9718 15.6413 15.1104C15.5195 15.2497 15.3984 15.2665 15.1905 15.1629C14.9826 15.0579 14.312 14.8388 13.5175 14.1304C12.8994 13.5788 12.4815 12.8977 12.3604 12.6891C12.2393 12.4812 12.3471 12.3685 12.4514 12.2649C12.5452 12.1718 12.6593 12.022 12.7636 11.9009C12.8679 11.7791 12.9022 11.6923 12.9715 11.553C13.0415 11.4144 13.0065 11.2933 12.954 11.189C12.9022 11.0847 12.4864 10.0606 12.3128 9.64408C12.1441 9.23878 11.9726 9.29408 11.8452 9.28708C11.7234 9.28148 11.5848 9.28008 11.4462 9.28008C11.3076 9.28008 11.0822 9.33188 10.8918 9.54048C10.7007 9.74838 10.1638 10.2517 10.1638 11.2758C10.1638 12.2992 10.9086 13.2883 11.0129 13.4276C11.1172 13.5662 12.4794 15.6676 14.5661 16.5685C15.0631 16.7827 15.4502 16.9108 15.7519 17.006C16.2503 17.1649 16.7039 17.1425 17.0623 17.0886C17.4613 17.0291 18.2929 16.5853 18.4665 16.0995C18.6394 15.6137 18.6394 15.1972 18.5876 15.1104C18.5358 15.0236 18.3972 14.9718 18.1886 14.8675H18.1893ZM14.3939 20.0496H14.3911C13.1517 20.0498 11.935 19.7166 10.8687 19.085L10.6167 18.9352L7.99728 19.6226L8.69658 17.069L8.53208 16.8072C7.83918 15.7042 7.47249 14.4277 7.47438 13.1252C7.47578 9.31018 10.5796 6.20638 14.3967 6.20638C16.2447 6.20638 17.9821 6.92738 19.2883 8.23498C19.9326 8.87659 20.4432 9.63958 20.7907 10.4798C21.1382 11.32 21.3156 12.2208 21.3127 13.1301C21.3113 16.9451 18.2075 20.0496 14.3939 20.0496ZM20.2823 7.24168C19.511 6.46532 18.5933 5.84975 17.5824 5.43064C16.5715 5.01152 15.4875 4.7972 14.3932 4.80008C9.80538 4.80008 6.07018 8.53458 6.06878 13.1245C6.06808 14.5917 6.45098 16.0239 7.17968 17.286L5.99878 21.6001L10.4116 20.4423C11.6323 21.1074 13.0002 21.4559 14.3904 21.4559H14.3939C18.9817 21.4559 22.7169 17.7214 22.7183 13.1308C22.7217 12.0369 22.5081 10.9531 22.09 9.9423C21.6719 8.93146 21.0574 8.01355 20.2823 7.24168Z" fill="white"/>
</g>
</g>
<defs>
<clipPath id="clip0_801_46">
<rect width="27" height="27" fill="white" transform="translate(0.598877)"/>
</clipPath>
<clipPath id="clip1_801_46">
<rect width="16.8" height="16.8" fill="white" transform="translate(5.99878 4.80005)"/>
</clipPath>
</defs>
</svg>
